{
  "accessors": [
    {
      "bufferView": 2,
      "componentType": 5126,
      "count": 2498,
      "max": [
        2.9464049339294434,
        12.465509414672852,
        9.6603279113769531
      ],
      "min": [
        0,
        0,
        0
      ],
      "type": "VEC3"
    },
    {
      "bufferView": 2,
      "byteOffset": 29976,
      "componentType": 5126,
      "count": 2498,
      "max": [
        0.99937784671783447,
        0.99751073122024536,
        1
      ],
      "min": [
        -0.99924904108047485,
        -0.99981611967086792,
        -0.99971634149551392
      ],
      "type": "VEC3"
    },
    {
      "bufferView": 3,
      "componentType": 5126,
      "count": 2498,
      "max": [
        0.99992787837982178,
        0.99994218349456787,
        0.99902737140655518,
        1
      ],
      "min": [
        -0.99999016523361206,
        -0.99998420476913452,
        -0.9990275502204895,
        -1
      ],
      "type": "VEC4"
    },
    {
      "bufferView": 1,
      "componentType": 5126,
      "count": 2498,
      "max": [
        0.98589998483657837,
        0.98729997873306274
      ],
      "min": [
        0.02669999934732914,
        0.28069999814033508
      ],
      "type": "VEC2"
    },
    {
      "bufferView": 0,
      "componentType": 5125,
      "count": 11967,
      "max": [
        2497
      ],
      "min": [
        0
      ],
      "type": "SCALAR"
    },
    {
      "bufferView": 2,
      "byteOffset": 59952,
      "componentType": 5126,
      "count": 1309,
      "max": [
        3.1189541816711426,
        15.475072860717773,
        9.6655254364013672
      ],
      "min": [
        0.5092010498046875,
        0.11199665069580078,
        2.9196910858154297
      ],
      "type": "VEC3"
    },
    {
      "bufferView": 2,
      "byteOffset": 75660,
      "componentType": 5126,
      "count": 1309,
      "max": [
        0.99604630470275879,
        0.99585604667663574,
        0.99996352195739746
      ],
      "min": [
        -0.99923622608184814,
        -0.99682271480560303,
        -0.993377685546875
      ],
      "type": "VEC3"
    },
    {
      "bufferView": 3,
      "byteOffset": 39968,
      "componentType": 5126,
      "count": 1309,
      "max": [
        0.99746733903884888,
        0.91440349817276001,
        0.95568746328353882,
        1
      ],
      "min": [
        -0.99968487024307251,
        -0.59689366817474365,
        -0.97406065464019775,
        -1
      ],
      "type": "VEC4"
    },
    {
      "bufferView": 1,
      "byteOffset": 19984,
      "componentType": 5126,
      "count": 1309,
      "max": [
        0.94880002737045288,
        0.98040002584457397
      ],
      "min": [
        0.041499998420476913,
        0.0414000004529953
      ],
      "type": "VEC2"
    },
    {
      "bufferView": 0,
      "byteOffset": 47868,
      "componentType": 5125,
      "count": 4581,
      "max": [
        1308
      ],
      "min": [
        0
      ],
      "type": "SCALAR"
    }
  ],
  "asset": {
    "extras": {
      "author": "Erika Moya (https://sketchfab.com/no_opponent)",
      "license": "CC-BY-NC-4.0 (http://creativecommons.org/licenses/by-nc/4.0/)",
      "source": "https://sketchfab.com/models/c758659ec66c4248bb4734c2167cdb7c",
      "title": "Dr. Plague"
    },
    "generator": "Sketchfab-3.36.3",
    "version": "2.0"
  },
  "bufferViews": [
    {
      "buffer": 0,
      "byteLength": 66192,
      "byteOffset": 0,
      "name": "floatBufferViews",
      "target": 34963
    },
    {
      "buffer": 0,
      "byteLength": 30456,
      "byteOffset": 66192,
      "byteStride": 8,
      "name": "floatBufferViews",
      "target": 34962
    },
    {
      "buffer": 0,
      "byteLength": 91368,
      "byteOffset": 96648,
      "byteStride": 12,
      "name": "floatBufferViews",
      "target": 34962
    },
    {
      "buffer": 0,
      "byteLength": 60912,
      "byteOffset": 188016,
      "byteStride": 16,
      "name": "floatBufferViews",
      "target": 34962
    }
  ],
  "buffers": [
    {
      "byteLength": 248928,
      "uri": "scene.bin"
    }
  ],
  "images": [
    {
      "uri": "textures/Scene_-_Root_baseColor.png"
    },
    {
      "uri": "textures/Scene_-_Root_emissive.png"
    }
  ],
  "materials": [
    {
      "alphaMode": "BLEND",
      "doubleSided": true,
      "emissiveFactor": [
        1,
        1,
        1
      ],
      "emissiveTexture": {
        "index": 1,
        "texCoord": 0
      },
      "name": "Scene_-_Root",
      "pbrMetallicRoughness": {
        "baseColorFactor": [
          1,
          1,
          1,
          1
        ],
        "baseColorTexture": {
          "index": 0,
          "texCoord": 0
        },
        "metallicFactor": 0,
        "roughnessFactor": 0.59999999999999998
      }
    }
  ],
  "meshes": [
    {
      "primitives": [
        {
          "attributes": {
            "NORMAL": 1,
            "POSITION": 0,
            "TANGENT": 2,
            "TEXCOORD_0": 3
          },
          "indices": 4,
          "material": 0,
          "mode": 4
        }
      ]
    },
    {
      "primitives": [
        {
          "attributes": {
            "NORMAL": 6,
            "POSITION": 5,
            "TANGENT": 7,
            "TEXCOORD_0": 8
          },
          "indices": 9,
          "material": 0,
          "mode": 4
        }
      ]
    }
  ],
  "nodes": [
    {
      "children": [
        1
      ],
      "name": "RootNode (gltf orientation matrix)",
      "rotation": [
        -0.70710678118654746,
        -0,
        -0,
        0.70710678118654757
      ]
    },
    {
      "children": [
        2
      ],
      "name": "RootNode (model correction matrix)"
    },
    {
      "children": [
        3
      ],
      "matrix": [
        1,
        0,
        0,
        0,
        0,
        1,
        0,
        0,
        0,
        0,
        1,
        0,
        -1.9038510322570801,
        -8.3299388885498047,
        -0.030868999660015106,
        1
      ],
      "name": "160c96abdcf1405791eadd0096a8c0ad.obj.cleaner.materialmerger.gles"
    },
    {
      "children": [
        4,
        5
      ],
      "name": ""
    },
    {
      "mesh": 0,
      "name": ""
    },
    {
      "mesh": 1,
      "name": ""
    }
  ],
  "samplers": [
    {
      "magFilter": 9729,
      "minFilter": 9987,
      "wrapS": 10497,
      "wrapT": 10497
    },
    {
      "magFilter": 9729,
      "minFilter": 9729,
      "wrapS": 10497,
      "wrapT": 10497
    }
  ],
  "scene": 0,
  "scenes": [
    {
      "name": "OSG_Scene",
      "nodes": [
        0
      ]
    }
  ],
  "textures": [
    {
      "sampler": 0,
      "source": 0
    },
    {
      "sampler": 1,
      "source": 1
    }
  ]
}

