<?xml version="1.0" encoding="UTF-8"?>
<svg width="508px" height="479px" viewBox="0 0 508 479" version="1.1" xmlns="http://www.w3.org/2000/svg" xmlns:xlink="http://www.w3.org/1999/xlink">
    <!-- Generator: Sketch 52.2 (67145) - http://www.bohemiancoding.com/sketch -->
    <title>Chat</title>
    <desc>Created with Sketch.</desc>
    <g id="Page-1" stroke="none" stroke-width="1" fill="none" fill-rule="evenodd">
        <g id="Chat" fill="#6D4141" fill-rule="nonzero">
            <g id="Layer_1">
                <g id="Icon-Comment">
                    <path d="M102.666667,478.266667 L76,478.266667 L92,455.866667 C103.733333,438.8 112.266667,418.533333 116.533333,391.866667 C40.8,357.733333 0.266666667,293.733333 0.266666667,209.466667 C0.266666667,80.4 97.3333333,0.4 254.133333,0.4 C410.933333,0.4 508,80.4 508,209.466667 C508,339.6 413.066667,418.533333 254.133333,418.533333 C250.933333,418.533333 246.666667,418.533333 243.466667,418.533333 C217.866667,446.266667 175.2,478.266667 102.666667,478.266667 Z M252,28.1333333 C110.133333,28.1333333 25.8666667,95.3333333 25.8666667,209.466667 C25.8666667,306.533333 85.6,350.266667 134.666667,370.533333 L144.266667,374.8 L143.2,385.466667 C140,410 134.666667,431.333333 126.133333,449.466667 C177.333333,443.066667 207.2,417.466667 223.2,396.133333 L227.466667,390.8 L237.066667,390.8 C241.333333,390.8 246.666667,390.8 250.933333,390.8 C454.666667,390.8 477.066667,263.866667 477.066667,209.466667 C478.133333,96.4 393.866667,28.1333333 252,28.1333333 Z" id="Fill-59"></path>
                </g>
            </g>
        </g>
    </g>
</svg>