<?xml version="1.0" encoding="UTF-8"?>
<svg width="512px" height="498px" viewBox="0 0 512 498" version="1.1" xmlns="http://www.w3.org/2000/svg" xmlns:xlink="http://www.w3.org/1999/xlink">
    <!-- Generator: Sketch 52.2 (67145) - http://www.bohemiancoding.com/sketch -->
    <title>hand</title>
    <desc>Created with Sketch.</desc>
    <g id="Page-1" stroke="none" stroke-width="1" fill="none" fill-rule="evenodd">
        <g id="hand">
            <path d="M128.691,416.211 C144.343,432.97 143.998,459.252 127.655,475.595 C110.943,492.295 83.864,492.295 67.164,475.595 C58.034,466.465 53.904,454.229 54.761,442.303 C42.81,443.148 30.586,439.018 21.457,429.888 C4.745,413.188 4.745,386.097 21.457,369.397 C37.8,353.054 64.081,352.709 80.853,368.361 L97.862,351.34 L124.894,324.309 L172.744,372.159 L128.691,416.211 Z" id="Path" fill="#E6E6E6"></path>
            <g id="Group" transform="translate(91.000000, 9.000000)" fill="#9AD14B" fill-opacity="0.56">
                <path d="M412.073,105.317 C412.085,112.066 409.514,118.791 404.36,123.945 L294.472,233.833 L294.46,233.845 L257.192,196.577 L273.368,180.413 L367.091,86.678 C377.387,76.394 394.063,76.394 404.359,86.69 C409.502,91.831 412.085,98.568 412.073,105.317 Z" id="Path"></path>
                <path d="M228.72,113.257 C239.016,123.541 239.016,140.229 228.72,150.525 L192.392,186.853 C187.238,192.007 180.501,194.578 173.752,194.578 C167.003,194.578 160.266,192.007 155.124,186.853 C144.828,176.569 144.828,159.881 155.124,149.597 L191.464,113.257 C196.606,108.115 203.355,105.532 210.092,105.532 C216.829,105.532 223.578,108.115 228.72,113.257 Z" id="Path"></path>
                <path d="M192.393,186.852 L228.721,150.524 L236.101,143.144 C241.243,138.002 247.992,135.419 254.729,135.431 C261.478,135.419 268.227,138.002 273.369,143.144 C283.653,153.44 283.653,170.116 273.369,180.412 L257.193,196.576 L294.461,233.844 L308.84,248.223 C316.541,255.924 316.541,268.422 308.84,276.123 L265.644,319.319 C247.29,337.673 221.175,346.017 195.56,341.696 C192.715,341.22 189.858,340.982 187.026,340.982 C173.54,340.982 160.471,346.303 150.77,356.003 L112.681,394.092 L81.745,363.156 L33.895,315.306 L0.388,281.799 L33.383,248.792 C42.144,240.043 48.773,229.402 52.737,217.678 C60.581,194.503 76.15,154.033 94.635,135.548 L120.083,110.1 L221.567,8.618 C231.851,-1.666 248.539,-1.666 258.823,8.618 C263.965,13.772 266.548,20.509 266.548,27.258 C266.548,34.007 263.965,40.744 258.823,45.886 L191.464,113.256 L155.124,149.596 C144.828,159.88 144.828,176.568 155.124,186.852 C160.266,192.006 167.003,194.577 173.752,194.577 C180.502,194.577 187.239,192.006 192.393,186.852 Z" id="Path"></path>
            </g>
            <g id="Group" transform="translate(91.000000, 9.000000)" fill="#90BC42">
                <path d="M155.125,186.852 C144.829,176.568 144.829,159.88 155.125,149.596 L137.866,166.855 C127.57,177.139 127.57,193.827 137.866,204.111 C143.008,209.265 149.745,211.836 156.494,211.836 C163.243,211.836 169.98,209.265 175.134,204.111 L192.393,186.852 C187.239,192.006 180.502,194.577 173.753,194.577 C167.004,194.577 160.267,192.006 155.125,186.852 Z" id="Path"></path>
                <path d="M191.701,223.429 C181.405,213.145 181.405,196.457 191.701,186.173 L174.442,203.432 C164.146,213.716 164.146,230.404 174.442,240.688 C179.584,245.842 186.321,248.413 193.07,248.413 C199.819,248.413 206.556,245.842 211.71,240.688 L228.969,223.429 C223.815,228.583 217.078,231.154 210.329,231.154 C203.58,231.154 196.843,228.583 191.701,223.429 Z" id="Path"></path>
                <path d="M242.992,26.473 L141.508,127.957 L116.06,153.405 C97.575,171.89 82.006,212.36 74.162,235.535 C70.198,247.259 63.568,257.901 54.808,266.649 L21.813,299.656 L0.388,281.802 L33.383,248.795 C42.144,240.046 48.773,229.405 52.737,217.681 C60.581,194.506 76.15,154.036 94.635,135.551 L120.083,110.103 L221.567,8.618 C231.851,-1.666 248.539,-1.666 258.823,8.618 C261.834,11.641 263.977,15.212 265.215,19.009 C257.335,17.926 249.051,20.414 242.992,26.473 Z" id="Path" fill-opacity="0.56"></path>
            </g>
            <rect id="Rectangle" fill="#CCCCCC" transform="translate(135.294641, 361.752773) rotate(135.000000) translate(-135.294641, -361.752773) " x="116.178824" y="327.918598" width="38.2316334" height="67.6683511"></rect>
            <path d="M512,114.323 C512.01,104.902 508.343,96.04 501.673,89.372 C487.917,75.617 465.539,75.612 451.783,89.366 L379.73,161.42 C378.168,155.709 375.159,150.315 370.681,145.837 C364.017,139.173 355.168,135.504 345.773,135.504 C345.752,135.504 345.729,135.504 345.708,135.504 C342.423,135.504 339.209,135.961 336.129,136.826 C335.23,128.94 331.731,121.639 326.035,115.944 C321.644,111.553 316.296,108.471 310.465,106.874 L356.139,61.2 C362.802,54.537 366.472,45.677 366.472,36.255 C366.472,26.831 362.802,17.973 356.139,11.31 C349.475,4.647 340.616,0.977 331.193,0.977 C321.771,0.977 312.913,4.647 306.248,11.31 L179.314,138.242 C160.471,157.087 144.966,195.182 135.276,223.822 C131.778,234.162 125.827,243.727 118.073,251.484 L85.07,284.487 C83.396,286.162 82.456,288.432 82.456,290.799 C82.456,293.166 83.396,295.438 85.07,297.111 L112.269,324.31 L80.13,356.45 C59.964,343.069 32.856,345.377 15.147,363.086 C5.38,372.849 0,385.832 0,399.644 C0,413.456 5.38,426.439 15.145,436.199 C23.52,444.574 34.432,449.745 46.032,451.022 C47.308,462.62 52.48,473.534 60.854,481.909 C70.931,491.986 84.166,497.025 97.405,497.023 C110.642,497.022 123.885,491.985 133.966,481.909 C151.676,464.197 153.983,437.091 140.603,416.925 L172.742,384.786 L197.363,409.407 C199.038,411.082 201.308,412.022 203.676,412.022 C206.044,412.022 208.313,411.082 209.989,409.407 L248.076,371.32 C257.752,361.644 271.59,357.227 285.076,359.503 C313.476,364.294 342.592,354.997 362.959,334.631 L406.153,291.437 C417.325,280.264 417.325,262.084 406.153,250.911 L398.086,242.844 L501.673,139.257 C508.343,132.587 512.01,123.725 512,114.323 Z M345.726,153.357 C345.738,153.357 345.75,153.357 345.758,153.357 C350.398,153.357 354.765,155.169 358.056,158.46 C364.845,165.249 364.845,176.298 358.056,183.093 L348.139,193.01 C345.117,190.521 341.36,189.167 337.393,189.167 C332.868,189.167 328.615,190.929 325.416,194.128 C315.413,204.13 309.636,217.232 308.979,231.267 C308.385,231.361 307.791,231.516 307.207,231.737 C305.264,232.471 303.205,232.845 301.085,232.845 C296.429,232.845 292.054,231.035 288.768,227.748 C281.973,220.953 281.97,209.9 288.762,203.108 L333.409,158.461 C336.702,155.169 341.069,153.357 345.726,153.357 Z M301.092,123.465 C305.746,123.465 310.12,125.277 313.413,128.569 C316.704,131.86 318.516,136.234 318.516,140.889 C318.516,145.544 316.704,149.919 313.413,153.209 C313.412,153.209 313.412,153.209 313.412,153.209 L277.077,189.545 C270.286,196.338 259.231,196.339 252.438,189.545 C249.146,186.254 247.334,181.878 247.334,177.224 C247.334,172.57 249.146,168.194 252.438,164.903 L288.778,128.563 C292.066,125.276 296.44,123.465 301.092,123.465 Z M122.382,409.894 C118.981,413.295 118.886,418.779 122.168,422.297 C134.661,435.687 134.297,456.326 121.342,469.283 C108.142,482.475 86.67,482.476 73.479,469.284 C66.54,462.346 62.962,452.74 63.661,442.932 C63.696,442.442 63.678,441.955 63.632,441.473 C64.131,437.074 65.49,432.755 67.614,428.905 C69.996,424.588 68.428,419.158 64.112,416.776 C59.795,414.393 54.366,415.962 51.983,420.279 C49.763,424.301 48.088,428.655 47.005,433.151 C39.778,432.142 33.012,428.821 27.768,423.576 C21.375,417.184 17.854,408.687 17.854,399.645 C17.854,390.603 21.375,382.106 27.77,375.714 C40.703,362.78 61.289,362.395 74.682,374.818 L85.412,385.548 C87.156,387.292 89.44,388.163 91.725,388.163 C94.009,388.163 96.295,387.292 98.037,385.548 C101.525,382.062 101.525,376.41 98.038,372.923 L93.472,368.357 L124.893,336.936 L160.116,372.159 L122.382,409.894 Z M393.528,278.811 L350.334,322.005 C334.045,338.293 310.758,345.727 288.048,341.897 C268.871,338.661 249.206,344.939 235.451,358.694 L203.677,390.469 L104.007,290.8 L130.7,264.108 C140.385,254.423 147.816,242.471 152.191,229.544 C169.507,178.359 184.529,158.28 191.942,150.867 L318.875,23.935 C325.669,17.141 336.722,17.142 343.514,23.935 C346.806,27.226 348.618,31.6 348.618,36.255 C348.618,40.91 346.806,45.285 343.514,48.576 L239.81,152.279 C233.147,158.942 229.477,167.802 229.477,177.224 C229.477,186.648 233.147,195.506 239.81,202.169 C246.688,209.047 255.722,212.485 264.755,212.485 C265.156,212.485 265.556,212.47 265.957,212.456 C265.121,222.452 268.511,232.739 276.145,240.371 C277.041,241.267 277.98,242.104 278.952,242.891 C270.088,245.413 261.726,250.147 254.761,257.113 L252.478,259.396 C248.992,262.882 248.992,268.535 252.479,272.021 C254.223,273.764 256.507,274.635 258.791,274.635 C261.076,274.635 263.362,273.764 265.104,272.02 L267.387,269.737 C282.267,254.857 306.476,254.86 321.354,269.737 C321.587,269.97 343.014,291.398 343.014,291.398 C346.502,294.883 352.154,294.884 355.638,291.398 C359.126,287.912 359.126,282.259 355.639,278.773 L338.042,261.176 C330.774,253.908 326.77,244.244 326.77,233.965 C326.77,223.993 330.538,214.599 337.402,207.41 L393.529,263.536 C397.739,267.746 397.739,274.598 393.528,278.811 Z M489.049,126.63 L385.461,230.217 L360.822,205.578 L370.676,195.724 C370.678,195.722 370.681,195.718 370.684,195.716 L464.409,101.99 C471.201,95.198 482.256,95.203 489.048,101.996 C492.34,105.287 494.15,109.659 494.145,114.323 C494.15,118.968 492.341,123.339 489.049,126.63 Z" id="Shape" fill="#333333" fill-rule="nonzero"></path>
        </g>
    </g>
</svg>