<?xml version="1.0" encoding="UTF-8"?>
<svg width="510px" height="510px" viewBox="0 0 510 510" version="1.1" xmlns="http://www.w3.org/2000/svg" xmlns:xlink="http://www.w3.org/1999/xlink">
    <!-- Generator: Sketch 52.2 (67145) - http://www.bohemiancoding.com/sketch -->
    <title>Help</title>
    <desc>Created with Sketch.</desc>
    <g id="Page-1" stroke="none" stroke-width="1" fill="none" fill-rule="evenodd">
        <g id="Help" fill="#6D4141" fill-rule="nonzero">
            <g id="Layer_1">
                <g id="Icon-Question">
                    <path d="M255.066667,510 C114.266667,510 0.133333333,395.866667 0.133333333,255.066667 C0.133333333,114.266667 114.266667,0.133333333 255.066667,0.133333333 C395.866667,0.133333333 510,114.266667 510,255.066667 C510,395.866667 395.866667,510 255.066667,510 Z M255.066667,27.8666667 C130.266667,27.8666667 27.8666667,130.266667 27.8666667,255.066667 C27.8666667,379.866667 130.266667,482.266667 255.066667,482.266667 C379.866667,482.266667 482.266667,379.866667 482.266667,255.066667 C482.266667,129.2 379.866667,27.8666667 255.066667,27.8666667 Z" id="Fill-47"></path>
                    <path d="M176.133333,174 C180.4,162.266667 185.733333,152.666667 193.2,145.2 C200.666667,137.733333 210.266667,131.333333 220.933333,127.066667 C231.6,122.8 244.4,120.666667 258.266667,120.666667 C268.933333,120.666667 279.6,122.8 289.2,126 C298.8,129.2 307.333333,134.533333 314.8,139.866667 C322.266667,145.2 327.6,153.733333 331.866667,162.266667 C336.133333,170.8 338.266667,181.466667 338.266667,193.2 C338.266667,208.133333 335.066667,219.866667 328.666667,230.533333 C322.266667,241.2 313.733333,250.8 304.133333,260.4 C295.6,268.933333 289.2,275.333333 284.933333,279.6 C279.6,283.866667 276.4,289.2 274.266667,293.466667 C272.133333,297.733333 270,303.066667 270,309.466667 C268.933333,315.866667 268.933333,320.133333 268.933333,331.866667 L244.4,331.866667 C244.4,320.133333 244.4,314.8 246.533333,307.333333 C247.6,298.8 250.8,292.4 254,284.933333 C257.2,278.533333 262.533333,272.133333 267.866667,265.733333 C274.266667,259.333333 280.666667,252.933333 289.2,245.466667 C296.666667,239.066667 303.066667,231.6 307.333333,223.066667 C312.666667,214.533333 314.8,204.933333 314.8,195.333333 C314.8,187.866667 313.733333,180.4 310.533333,174 C307.333333,167.6 303.066667,162.266667 298.8,156.933333 C294.533333,151.6 288.133333,148.4 280.666667,146.266667 C274.266667,144.133333 266.8,142 259.333333,142 C248.666667,142 239.066667,144.133333 231.6,147.333333 C223.066667,150.533333 216.666667,155.866667 211.333333,162.266667 C206,168.666667 201.733333,176.133333 199.6,184.666667 C197.466667,193.2 195.333333,200.666667 196.4,210.266667 L171.866667,210.266667 C170.8,195.333333 171.866667,185.733333 176.133333,174 Z M240.133333,360.666667 L270,360.666667 L270,390.533333 L240.133333,390.533333 L240.133333,360.666667 Z" id="Fill-48"></path>
                </g>
            </g>
        </g>
    </g>
</svg>